<svg width="246" height="70" viewBox="0 0 246 70" fill="none" xmlns="http://www.w3.org/2000/svg">
<g id="Layer_2" clip-path="url(#clip0_243_472)">
<path id="Vector" d="M246 0H0V70H246V0Z" fill="black"/>
<g id="Group">
<path id="Vector_2" d="M107.492 20.4733L113.786 17.5754L119.076 20.4733L133.553 34.9456L119.076 49.4238L112.782 52.9398L107.492 49.4238L104.08 45.7503V41.6512L110.385 34.9456L107.492 32.0535L103.328 27.8494L107.492 20.4733Z" fill="#FF1256"/>
<path id="Vector_3" d="M60.2414 55.2139V50.2109H55.4878V19.4296H60.2414V14.6774H86.2786V19.4296H91.0323V50.2109H86.2786V55.2139H60.2414ZM63.7819 46.9282H82.744V22.9748H63.7819V46.9282Z" fill="white"/>
<path id="Vector_4" d="M20.2639 55.2139V50.211H15.5161V19.4296H20.2639V14.6833H46.3011V22.969H23.8044V46.9223H42.7665V38.9631H33.8891V30.6774H51.0431V34.6658H51.0548V50.211H46.3011V55.2139H20.2639Z" fill="white"/>
<path id="Vector_5" d="M149.33 14.6833H141.042V55.2139H149.33V14.6833Z" fill="#FF1256"/>
<path id="Vector_6" d="M159.199 55.2139V50.2109H154.445V19.4296H159.199V14.6774H185.236V19.4296H189.984V50.2109H185.236V55.2139H159.199ZM162.739 46.9282H181.702V22.9748H162.739V46.9282Z" fill="#FF1256"/>
<path id="Vector_7" d="M199.934 55.2139V50.2109H195.181V19.4296H199.934V14.6774H225.971V19.4296H230.725V50.2109H225.971V55.2139H199.934ZM203.475 46.9282H222.437V22.9748H203.475V46.9282Z" fill="#FF1256"/>
<path id="Vector_8" d="M101.7 43.6337V49.4238H107.492V43.6337H101.7Z" fill="#FF1256"/>
<path id="Vector_9" d="M101.7 37.8436V43.6337H107.492V37.8436H101.7Z" fill="#FF1256"/>
<path id="Vector_10" d="M113.284 49.4238H107.492V55.2139H113.284V49.4238Z" fill="#FF1256"/>
<path id="Vector_11" d="M119.076 49.4238H113.284V55.2139H119.076V49.4238Z" fill="#FF1256"/>
<path id="Vector_12" d="M113.284 14.6833H107.492V20.4733H113.284V14.6833Z" fill="#FF1256"/>
<path id="Vector_13" d="M119.076 14.6833H113.284V20.4733H119.076V14.6833Z" fill="#FF1256"/>
<path id="Vector_14" d="M101.7 26.2634V32.0535H107.492V26.2634H101.7Z" fill="#FF1256"/>
<path id="Vector_15" d="M124.868 37.8436V43.6337H130.66V37.8436H124.868Z" fill="#FF1256"/>
<path id="Vector_16" d="M124.868 26.2634V32.0535H130.66V26.2634H124.868Z" fill="#FF1256"/>
<path id="Vector_17" d="M101.7 20.4733V26.2634H107.492V20.4733H101.7Z" fill="#FF1256"/>
<path id="Vector_18" d="M119.076 43.6337V49.4238H124.868V43.6337H119.076Z" fill="#FF1256"/>
<path id="Vector_19" d="M119.076 20.4733V26.2634H124.868V20.4733H119.076Z" fill="#FF1256"/>
<path id="Vector_20" d="M107.492 32.0535V37.8436H113.284V32.0535H107.492Z" fill="#FF1256"/>
<path id="Vector_21" d="M130.66 32.0535V37.8436H136.452V32.0535H130.66Z" fill="#FF1256"/>
</g>
</g>
<defs>
<clipPath id="clip0_243_472">
<rect width="246" height="70" fill="white"/>
</clipPath>
</defs>
</svg>
