<svg width="104" height="20" viewBox="0 0 104 20" fill="none" xmlns="http://www.w3.org/2000/svg">
<path d="M44.5612 2.9442L47.58 1.53662L50.1176 2.9442L57.0618 9.97361L50.1176 17.0058L47.0988 18.7136L44.5612 17.0058L42.9245 15.2216V13.2306L45.9489 9.97361L44.5612 8.56886L42.5636 6.52687L44.5612 2.9442Z" fill="#FF1256"/>
<path d="M21.8962 19.8182V17.3882H19.616V2.43723H21.8962V0.129028H34.3856V2.43723H36.6658V17.3882H34.3856V19.8182H21.8962ZM23.5945 15.7937H32.6901V4.15918H23.5945V15.7937Z" fill="white"/>
<path d="M2.7201 19.8181V17.3881H0.442688V2.43721H2.7201V0.131836H15.2095V4.15633H4.41836V15.7908H13.514V11.9249H9.25576V7.90043H17.4841V9.83763H17.4897V17.3881H15.2095V19.8181H2.7201Z" fill="white"/>
<path d="M64.6299 0.131836H60.6542V19.8181H64.6299V0.131836Z" fill="#FF1256"/>
<path d="M69.3637 19.8182V17.3882H67.0835V2.43723H69.3637V0.129028H81.8531V2.43723H84.1305V17.3882H81.8531V19.8182H69.3637ZM71.062 15.7937H80.1576V4.15918H71.062V15.7937Z" fill="#FF1256"/>
<path d="M88.9035 19.8182V17.3882H86.6233V2.43723H88.9035V0.129028H101.393V2.43723H103.673V17.3882H101.393V19.8182H88.9035ZM90.6018 15.7937H99.6974V4.15918H90.6018V15.7937Z" fill="#FF1256"/>
<path d="M41.783 14.1935V17.0059H44.5612V14.1935H41.783Z" fill="#FF1256"/>
<path d="M41.783 11.3812V14.1935H44.5612V11.3812H41.783Z" fill="#FF1256"/>
<path d="M47.3394 17.0059H44.5612V19.8182H47.3394V17.0059Z" fill="#FF1256"/>
<path d="M50.1176 17.0059H47.3394V19.8182H50.1176V17.0059Z" fill="#FF1256"/>
<path d="M47.3394 0.131836H44.5612V2.94416H47.3394V0.131836Z" fill="#FF1256"/>
<path d="M50.1176 0.131836H47.3394V2.94416H50.1176V0.131836Z" fill="#FF1256"/>
<path d="M41.783 5.75652V8.56885H44.5612V5.75652H41.783Z" fill="#FF1256"/>
<path d="M52.8959 11.3812V14.1935H55.6741V11.3812H52.8959Z" fill="#FF1256"/>
<path d="M52.8959 5.75652V8.56885H55.6741V5.75652H52.8959Z" fill="#FF1256"/>
<path d="M41.783 2.94421V5.75653H44.5612V2.94421H41.783Z" fill="#FF1256"/>
<path d="M50.1176 14.1935V17.0059H52.8958V14.1935H50.1176Z" fill="#FF1256"/>
<path d="M50.1176 2.9442V5.75653H52.8958V2.9442H50.1176Z" fill="#FF1256"/>
<path d="M44.5612 8.56883V11.3812H47.3394V8.56883H44.5612Z" fill="#FF1256"/>
<path d="M55.6741 8.56883V11.3812H58.4523V8.56883H55.6741Z" fill="#FF1256"/>
</svg>
