<svg width="118" height="34" viewBox="0 0 118 34" fill="none" xmlns="http://www.w3.org/2000/svg">
<g id="Layer_2" clip-path="url(#clip0_116_2614)">
<path id="Vector" d="M118 0H0V34H118V0Z" fill="black"/>
<g id="Group">
<path id="Vector_2" d="M51.5612 9.9442L54.58 8.53662L57.1176 9.9442L64.0618 16.9736L57.1176 24.0058L54.0988 25.7136L51.5612 24.0058L49.9245 22.2216V20.2306L52.9489 16.9736L51.5612 15.5689L49.5636 13.5269L51.5612 9.9442Z" fill="#FF1256"/>
<path id="Vector_3" d="M28.8962 26.8183V24.3883H26.616V9.43736H28.8962V7.12915H41.3856V9.43736H43.6658V24.3883H41.3856V26.8183H28.8962ZM30.5945 22.7938H39.6901V11.1593H30.5945V22.7938Z" fill="white"/>
<path id="Vector_4" d="M9.7201 26.8184V24.3884H7.44269V9.43745H9.7201V7.13208H22.2095V11.1566H11.4184V22.7911H20.514V18.9252H16.2558V14.9007H24.4841V16.8379H24.4897V24.3884H22.2095V26.8184H9.7201Z" fill="white"/>
<path id="Vector_5" d="M71.6298 7.13208H67.6541V26.8184H71.6298V7.13208Z" fill="#FF1256"/>
<path id="Vector_6" d="M76.3637 26.8183V24.3883H74.0835V9.43736H76.3637V7.12915H88.8531V9.43736H91.1305V24.3883H88.8531V26.8183H76.3637ZM78.0619 22.7938H87.1576V11.1593H78.0619V22.7938Z" fill="#FF1256"/>
<path id="Vector_7" d="M95.9035 26.8183V24.3883H93.6233V9.43736H95.9035V7.12915H108.393V9.43736H110.673V24.3883H108.393V26.8183H95.9035ZM97.6018 22.7938H106.697V11.1593H97.6018V22.7938Z" fill="#FF1256"/>
<path id="Vector_8" d="M48.783 21.1935V24.0059H51.5612V21.1935H48.783Z" fill="#FF1256"/>
<path id="Vector_9" d="M48.783 18.3813V21.1936H51.5612V18.3813H48.783Z" fill="#FF1256"/>
<path id="Vector_10" d="M54.3394 24.0059H51.5612V26.8182H54.3394V24.0059Z" fill="#FF1256"/>
<path id="Vector_11" d="M57.1176 24.0059H54.3394V26.8182H57.1176V24.0059Z" fill="#FF1256"/>
<path id="Vector_12" d="M54.3394 7.13208H51.5612V9.94441H54.3394V7.13208Z" fill="#FF1256"/>
<path id="Vector_13" d="M57.1176 7.13208H54.3394V9.94441H57.1176V7.13208Z" fill="#FF1256"/>
<path id="Vector_14" d="M48.783 12.7565V15.5688H51.5612V12.7565H48.783Z" fill="#FF1256"/>
<path id="Vector_15" d="M59.8958 18.3813V21.1936H62.6741V18.3813H59.8958Z" fill="#FF1256"/>
<path id="Vector_16" d="M59.8958 12.7565V15.5688H62.6741V12.7565H59.8958Z" fill="#FF1256"/>
<path id="Vector_17" d="M48.783 9.94427V12.7566H51.5612V9.94427H48.783Z" fill="#FF1256"/>
<path id="Vector_18" d="M57.1176 21.1935V24.0059H59.8958V21.1935H57.1176Z" fill="#FF1256"/>
<path id="Vector_19" d="M57.1176 9.94426V12.7566H59.8958V9.94426H57.1176Z" fill="#FF1256"/>
<path id="Vector_20" d="M51.5612 15.569V18.3813H54.3394V15.569H51.5612Z" fill="#FF1256"/>
<path id="Vector_21" d="M62.674 15.569V18.3813H65.4523V15.569H62.674Z" fill="#FF1256"/>
</g>
</g>
<defs>
<clipPath id="clip0_116_2614">
<rect width="118" height="34" fill="white"/>
</clipPath>
</defs>
</svg>
